# xmcd
#
# Track frame offsets:
#	150
#	16208
#	28009
#	47157
#	62984
#	88765
#	105764
#	122564
#	142670
#	159607
#	176082
#	199155
#
# Disc length: 2818 seconds
# Revision: 0
# Processed by: cddbd v1.5.2PL0 Copyright (c) Steve Scherf et al.
# Submitted via: dBpowerAMP V12.0
#
DISCID=980b000c
DTITLE=Jace Everett - Red Revelations
DYEAR=2009
DGENRE=Country
TTITLE0=Possessions
TTITLE1=Burn For You
TTITLE2=More to Life (C'mon C'mon)
TTITLE3=The Good Life
TTITLE4=Damned If I Do
TTITLE5=One Of Them
TTITLE6=Permanent Thing
TTITLE7=Little Black Dress
TTITLE8=Lean Into The Wind
TTITLE9=What Is This?
TTITLE10=Slip Away
TTITLE11=Bad Things (Theme from "True blood")
EXTD=
EXTT0=
EXTT1=
EXTT2=
EXTT3=
EXTT4=
EXTT5=
EXTT6=
EXTT7=
EXTT8=
EXTT9=
EXTT10=
EXTT11=
PLAYORDER=
